<svg width="164" height="61" viewBox="0 0 164 61" fill="none" xmlns="http://www.w3.org/2000/svg">
<circle cx="51.5" cy="18.5" r="18.5" fill="#92E7A2"/>
<path d="M3.4 21.04C6.17333 20.6133 8.88 20.4 11.52 20.4C15.1467 20.4 17.8933 21.1733 19.76 22.72C21.6533 24.24 22.6 26.4267 22.6 29.28C22.6 32.3733 21.6533 34.72 19.76 36.32C17.8667 37.92 15.12 38.72 11.52 38.72C9.76 38.72 8.12 38.64 6.6 38.48V50H3.4V21.04ZM6.6 35.84C8.14667 36.0533 9.70667 36.16 11.28 36.16C13.92 36.16 15.9333 35.5867 17.32 34.44C18.7333 33.2933 19.44 31.6533 19.44 29.52C19.44 27.3867 18.7467 25.7733 17.36 24.68C16 23.56 13.9733 23 11.28 23C9.81333 23 8.25333 23.1333 6.6 23.4V35.84ZM26.1844 30H31.6644V27.32C31.6644 22.7067 33.8777 20.4 38.3044 20.4C39.531 20.4 40.7844 20.6 42.0644 21L41.4244 23.4C40.4377 23 39.491 22.8 38.5844 22.8C37.1444 22.8 36.1177 23.1467 35.5044 23.84C34.9177 24.5067 34.6244 25.6667 34.6244 27.32V30H41.7844V32.4H34.6244V50H31.6644V32.4H26.1844V30ZM67.7484 28.8C70.6551 28.8 72.7351 29.4 73.9884 30.6C75.2418 31.8 75.8684 33.7733 75.8684 36.52V44.4C75.8684 46.2933 76.0684 48.16 76.4684 50H73.6684C73.4551 48.96 73.3218 47.7333 73.2684 46.32H73.1884C72.4684 47.6 71.4284 48.6 70.0684 49.32C68.7084 50.04 67.1751 50.4 65.4684 50.4C63.5484 50.4 62.0151 49.8667 60.8684 48.8C59.7218 47.7067 59.1484 46.24 59.1484 44.4C59.1484 42.08 60.1618 40.24 62.1884 38.88C64.2151 37.4933 67.0951 36.8 70.8284 36.8H72.9484V36.6C72.9484 34.5733 72.5618 33.1733 71.7884 32.4C71.0418 31.6 69.6951 31.2 67.7484 31.2C65.2418 31.2 62.9084 31.8133 60.7484 33.04L60.2284 30.68C62.5218 29.4267 65.0284 28.8 67.7484 28.8ZM62.0284 44.28C62.0284 45.48 62.4018 46.4267 63.1484 47.12C63.8951 47.7867 64.8951 48.12 66.1484 48.12C67.9884 48.12 69.5751 47.4667 70.9084 46.16C72.2684 44.8267 72.9484 43.2 72.9484 41.28V39.04H70.8284C68.0284 39.04 65.8551 39.52 64.3084 40.48C62.7884 41.4133 62.0284 42.68 62.0284 44.28ZM82.0625 29.2H84.8625L84.9025 32.92H84.9825C85.7825 31.64 86.7958 30.64 88.0225 29.92C89.2758 29.1733 90.6225 28.8 92.0625 28.8C94.4092 28.8 96.1425 29.5333 97.2625 31C98.4092 32.44 98.9825 34.7333 98.9825 37.88V50H96.1025V38.12C96.1025 35.5333 95.7292 33.7467 94.9825 32.76C94.2358 31.7467 92.9558 31.24 91.1425 31.24C89.5958 31.24 88.1825 32.0133 86.9025 33.56C85.6225 35.08 84.9825 36.8533 84.9825 38.88V50H82.0625V29.2ZM104.797 29.2H120.677V31.6L108.477 47.52V47.6H120.677V50H104.797V47.6L116.997 31.68V31.6H104.797V29.2ZM127.881 40.72C127.935 42.9867 128.628 44.7733 129.961 46.08C131.295 47.3867 133.028 48.04 135.161 48.04C137.215 48.04 139.255 47.5067 141.281 46.44L142.081 48.72C139.841 49.84 137.441 50.4 134.881 50.4C131.895 50.4 129.481 49.4267 127.641 47.48C125.801 45.5333 124.881 42.9067 124.881 39.6C124.881 36.24 125.735 33.6 127.441 31.68C129.175 29.76 131.521 28.8 134.481 28.8C137.361 28.8 139.588 29.72 141.161 31.56C142.761 33.3733 143.561 35.9867 143.561 39.4C143.561 39.7467 143.535 40.1867 143.481 40.72H127.881ZM127.881 38.4H140.681C140.655 36.08 140.095 34.2933 139.001 33.04C137.908 31.7867 136.401 31.16 134.481 31.16C132.481 31.16 130.895 31.8 129.721 33.08C128.575 34.3333 127.961 36.1067 127.881 38.4Z" fill="black"/>
<path d="M49.4828 50V20H52.5628V50H49.4828Z" fill="#A0616A"/>
</svg>
